subject_08
version=1
nRows=206
nColumns=3
inDegrees=yes
endheader
time	r_shoulder_elev	r_elbow_flex
112.9200	14.125529	85.082760
112.9300	14.125529	84.835762
112.9400	14.125529	84.894549
112.9500	14.125529	85.346465
112.9600	14.125529	86.158311
112.9700	14.125529	87.178700
112.9800	14.125529	88.181611
112.9900	14.125529	88.937783
113.0000	14.125529	89.289609
113.0100	14.125529	89.202968
113.0200	14.125529	88.777222
113.0300	14.125529	88.209742
113.0400	14.125529	87.728100
113.0500	14.125529	87.514908
113.0600	14.125529	87.652598
113.0700	14.125529	88.107151
113.0800	14.125529	88.754261
113.0900	14.125529	89.434870
113.1000	14.125529	90.016122
113.1100	14.125529	90.433007
113.1200	14.125529	90.695435
113.1300	14.125529	90.861177
113.1400	14.125529	90.990244
113.1500	14.125529	91.104277
113.1600	14.125529	91.171833
113.1700	14.125529	91.128009
113.1800	14.125529	90.920092
113.1900	14.125529	90.557165
113.2000	14.125529	90.137358
113.2100	14.125529	89.834194
113.2200	14.125529	89.840663
113.2300	14.125529	90.289308
113.2400	14.125529	91.180213
113.2500	14.125529	92.349890
113.2600	14.125529	93.501013
113.2700	14.125529	94.290037
113.2800	14.125529	94.445656
113.2900	14.125529	93.875682
113.3000	14.125529	92.720183
113.3100	14.125529	91.325619
113.3200	14.125529	90.142815
113.3300	14.125529	89.580473
113.3400	14.125529	89.864455
113.3500	14.125529	90.953622
113.3600	14.125529	92.544599
113.3700	14.125529	94.166717
113.3800	14.125529	95.335910
113.3900	14.125529	95.714620
113.4000	14.125529	95.222026
113.4100	14.125529	94.056420
113.4200	14.125529	92.622900
113.4300	14.125529	91.393148
113.4400	14.125529	90.747566
113.4500	14.125529	90.854970
113.4600	14.125529	91.629914
113.4700	14.125529	92.778641
113.4800	14.125529	93.912729
113.4900	14.125529	94.686562
113.5000	14.125529	94.908885
113.5100	14.125529	94.591249
113.5200	14.125529	93.921513
113.5300	14.125529	93.178611
113.5400	14.125529	92.624749
113.5500	14.125529	92.416285
113.5600	14.125529	92.563725
113.5700	14.125529	92.949925
113.5800	14.125529	93.392753
113.5900	14.125529	93.723019
113.6000	14.125529	93.845908
113.6100	14.125529	93.764302
113.6200	14.125529	93.560052
113.6300	14.125529	93.346691
113.6400	14.125529	93.217087
113.6500	14.125529	93.208703
113.6600	14.125529	93.298777
113.6700	14.125529	93.427116
113.6800	14.125529	93.532062
113.6900	14.125529	93.580975
113.7000	14.125529	93.580884
113.7100	14.125529	93.566057
113.7200	14.125529	93.571151
113.7300	14.125529	93.605659
113.7400	14.125529	93.644313
113.7500	14.125529	93.639638
113.7600	14.125529	93.551055
113.7700	14.125529	93.375598
113.7800	14.125529	93.163073
113.7900	14.125529	93.004869
113.8000	14.125529	92.997868
113.8100	14.125529	93.197642
113.8200	14.125529	93.582161
113.8300	14.125529	94.044959
113.8400	14.125529	94.425320
113.8500	14.125529	94.567090
113.8600	14.125529	94.383988
113.8700	14.125529	93.904013
113.8800	14.125529	93.271796
113.8900	14.125529	92.704275
113.9000	14.125529	92.413102
113.9100	14.125529	92.522691
113.9200	14.125529	93.016575
113.9300	14.125529	93.735277
113.9400	14.125529	94.429446
113.9500	14.125529	94.850106
113.9600	14.125529	94.842260
113.9700	14.125529	94.405437
113.9800	14.125529	93.696552
113.9900	14.125529	92.972462
114.0000	14.125529	92.493230
114.0100	14.125529	92.422988
114.0200	14.125529	92.766929
114.0300	14.125529	93.369341
114.0400	14.125529	93.973995
114.0500	14.125529	94.323772
114.0600	14.125529	94.260805
114.0700	14.125529	93.788031
114.0800	14.125529	93.067918
114.0900	14.125529	92.358758
114.1000	14.125529	91.913327
114.1100	14.125529	91.879503
114.1200	14.125529	92.241667
114.1300	14.125529	92.825711
114.1400	14.125529	93.365632
114.1500	14.125529	93.605714
114.1600	14.125529	93.398649
114.1700	14.125529	92.761799
114.1800	14.125529	91.870333
114.1900	14.125529	90.990560
114.2000	14.125529	90.379664
114.2100	14.125529	90.190499
114.2200	14.125529	90.417362
114.2300	14.125529	90.902183
114.2400	14.125529	91.397083
114.2500	14.125529	91.657944
114.2600	14.125529	91.532743
114.2700	14.125529	91.011765
114.2800	14.125529	90.222635
114.2900	14.125529	89.374825
114.3000	14.125529	88.677272
114.3100	14.125529	88.261736
114.3200	14.125529	88.140568
114.3300	14.125529	88.212706
114.3400	14.125529	88.312352
114.3500	14.125529	88.278632
114.3600	14.125529	88.017766
114.3700	14.125529	87.534014
114.3800	14.125529	86.919382
114.3900	14.125529	86.308985
114.4000	14.125529	85.822050
114.4100	14.125529	85.513061
114.4200	14.125529	85.352038
114.4300	14.125529	85.240242
114.4400	14.125529	85.053191
114.4500	14.125529	84.692457
114.4600	14.125529	84.125262
114.4700	14.125529	83.396855
114.4800	14.125529	82.612101
114.4900	14.125529	81.894884
114.5000	14.125529	81.341921
114.5100	14.125529	80.988674
114.5200	14.125529	80.799206
114.5300	14.125529	80.682027
114.5400	14.125529	80.524168
114.5500	14.125529	80.229797
114.5600	14.125529	79.749422
114.5700	14.125529	79.090697
114.5800	14.125529	78.309471
114.5900	14.125529	77.486859
114.6000	14.125529	76.702056
114.6100	14.125529	76.010442
114.6200	14.125529	75.432880
114.6300	14.125529	74.957125
114.6400	14.125529	74.547998
114.6500	14.125529	74.161000
114.6600	14.125529	73.754569
114.6700	14.125529	73.298204
114.6800	14.125529	72.776074
114.6900	14.125529	72.187102
114.7000	14.125529	71.542748
114.7100	14.125529	70.863163
114.7200	14.125529	70.171850
114.7300	14.125529	69.489201
114.7400	14.125529	68.826203
114.7500	14.125529	68.180594
114.7600	14.125529	67.537866
114.7700	14.125529	66.878171
114.7800	14.125529	66.187580
114.7900	14.125529	65.469389
114.8000	14.125529	64.749717
114.8100	14.125529	64.072840
114.8200	14.125529	63.485424
114.8300	14.125529	63.014080
114.8400	14.125529	62.645017
114.8500	14.125529	62.315796
114.8600	14.125529	61.926110
114.8700	14.125529	61.367528
114.8800	14.125529	60.563883
114.8900	14.125529	59.507783
114.9000	14.125529	58.277684
114.9100	14.125529	57.025319
114.9200	14.125529	55.933659
114.9300	14.125529	55.157302
114.9400	14.125529	54.765575
114.9500	14.125529	54.709867
114.9600	14.125529	54.829608
114.9700	14.125529	54.897940
